<?xml version="1.0" encoding="UTF-8" standalone="no"?>
<svg
   xmlns:dc="http://purl.org/dc/elements/1.1/"
   xmlns:cc="http://creativecommons.org/ns#"
   xmlns:rdf="http://www.w3.org/1999/02/22-rdf-syntax-ns#"
   xmlns:svg="http://www.w3.org/2000/svg"
   xmlns="http://www.w3.org/2000/svg"
   xmlns:sodipodi="http://sodipodi.sourceforge.net/DTD/sodipodi-0.dtd"
   xmlns:inkscape="http://www.inkscape.org/namespaces/inkscape"
   version="1.1"
   id="svg62"
   width="1000"
   height="600"
   viewBox="0 0 1000 600"
   sodipodi:docname="ttime_logo_red.svg"
   inkscape:version="1.0 (1.0+r73+1)">
  <metadata
     id="metadata68">
    <rdf:RDF>
      <cc:Work
         rdf:about="">
        <dc:format>image/svg+xml</dc:format>
        <dc:type
           rdf:resource="http://purl.org/dc/dcmitype/StillImage" />
        <dc:title></dc:title>
      </cc:Work>
    </rdf:RDF>
  </metadata>
  <defs id="defs66">
    <style type="text/css">
        @import url('https://fonts.googleapis.com/css?family=Arvo:400,700,400italic');
    </style>
  </defs>
  <sodipodi:namedview
     inkscape:document-rotation="0"
     pagecolor="#ffffff"
     bordercolor="#666666"
     borderopacity="1"
     objecttolerance="10"
     gridtolerance="10"
     guidetolerance="10"
     inkscape:pageopacity="0"
     inkscape:pageshadow="2"
     inkscape:window-width="1853"
     inkscape:window-height="1016"
     id="namedview64"
     showgrid="false"
     fit-margin-top="0"
     fit-margin-left="0"
     fit-margin-right="0"
     fit-margin-bottom="0"
     inkscape:zoom="0.53549145"
     inkscape:cx="240.0259"
     inkscape:cy="65.918703"
     inkscape:window-x="67"
     inkscape:window-y="27"
     inkscape:window-maximized="1"
     inkscape:current-layer="g70">
    <inkscape:grid
       type="xygrid"
       id="grid74"
       originx="41.641123"
       originy="-135.73437" />
  </sodipodi:namedview>
  <g
     inkscape:groupmode="layer"
     inkscape:label="Image"
     id="g70"
     transform="translate(41.641123,-135.73437)">
    <g
       style="fill:#993337;fill-opacity:1"
       id="g1000"
       transform="matrix(0.89513419,0,0,0.89513419,-20.888129,157.5162)">
      <path
         id="path76"
         d="m 15,30 v 75 h 95 V 365 H 210 V 105 h 95 V 30 Z"
         style="fill:#993337;fill-opacity:1;stroke:none;stroke-width:1px;stroke-linecap:butt;stroke-linejoin:miter;stroke-opacity:1" />
      <path
         sodipodi:nodetypes="csccccccccccccc"
         id="path78"
         d="m 271,251 v 64 c 0,54 39,60 102,48 l -5,-48 c -9,3 -29.75021,12.22922 -30,-5 0,-18 0,-59 0,-59 h 33 v -50 h -33 v -61 l -67,34 v 27 h -22 v 50 z"
         style="fill:#993337;fill-opacity:1;stroke:none;stroke-width:1px;stroke-linecap:butt;stroke-linejoin:miter;stroke-opacity:1" />
      <path
         id="path80"
         d="m 403.5,209 h 58 v 155 h -58 z"
         style="fill:#993337;fill-opacity:1;stroke:none;stroke-width:1px;stroke-linecap:butt;stroke-linejoin:miter;stroke-opacity:1" />
      <path
         d="m 425,95 v 10.75977 a 37.5,37.5 0 0 0 -13.17578,5.45898 l -7.60938,-7.60937 -10.60546,10.60546 7.60742,7.60743 A 37.5,37.5 0 0 0 395.75781,135 H 385 v 15 h 10.75977 a 37.5,37.5 0 0 0 5.45703,13.17773 l -7.60742,7.60743 10.60546,10.60546 7.60743,-7.60742 A 37.5,37.5 0 0 0 425,179.24219 V 190 h 15 v -10.75977 a 37.5,37.5 0 0 0 13.17578,-5.45898 l 7.60938,7.60937 10.60546,-10.60546 -7.60742,-7.60743 A 37.5,37.5 0 0 0 469.24219,150 H 480 v -15 h -10.75977 a 37.5,37.5 0 0 0 -5.45703,-13.17773 l 7.60742,-7.60743 -10.60546,-10.60546 -7.60743,7.60742 A 37.5,37.5 0 0 0 440,105.75781 V 95 Z m 7.48633,35 A 12.5,12.5 0 0 1 432.5,130 12.5,12.5 0 0 1 445,142.5 12.5,12.5 0 0 1 432.5,155 12.5,12.5 0 0 1 420,142.5 12.5,12.5 0 0 1 432.48633,130 Z"
         style="fill:#993337;fill-opacity:1;stroke:none"
         id="path86" />
      <path
         sodipodi:nodetypes="cccssccssccscccc"
         id="path158"
         d="m 495,201 v 163 h 66 v -89 c 0,-32.46275 37,-30 37,-10 v 99 h 66 v -86 c 0,-37 37,-32 37,-13 v 99 h 66 V 256 c 0,-68.46633 -77,-71 -110,-34 -22,-32 -67,-32 -100,-3 v -18 z"
         style="fill:#993337;fill-opacity:1;stroke:none;stroke-width:1px;stroke-linecap:butt;stroke-linejoin:miter;stroke-opacity:1" />
      <path
         d="m 883,198 c -53,0 -93,27 -93,82 0,55 30,87 93,87 62,0 70,-18 92,-49 l -65,-6 c -22,30 -50,11 -53,-11 h 119 c 0,-36 -1,-103 -93,-103 z m 0.5,41.25 c 13.25,0 26.5,9.25 26.5,27.75 h -53 c 0,-18.5 13.25,-27.75 26.5,-27.75 z"
         style="fill:#993337;fill-opacity:1;stroke:none;stroke-width:1px;stroke-linecap:butt;stroke-linejoin:miter;stroke-opacity:1"
         id="path160" />
      <rect
         y="307.81342"
         x="993.28247"
         height="53"
         width="60"
         id="rect164"
         style="fill:#993337;fill-opacity:1;stroke:none" />
      <path
         sodipodi:nodetypes="ccccccc"
         id="path166"
         d="m 1000.7825,299.81343 h 45 l 10,-100 v -54 h -65 v 54 z"
         style="fill:#993337;fill-opacity:1;stroke:none;stroke-width:1px;stroke-linecap:butt;stroke-linejoin:miter;stroke-opacity:1" />
    </g>
    <text
       xml:space="preserve"
       style="font-size:200px;line-height:1.25;font-family:Arvo;-inkscape-font-specification:Arvo;letter-spacing:0px;word-spacing:0px;fill:#993337;fill-opacity:1;"
       x="218.75926"
       y="686.362"
       id="text843"><tspan
         sodipodi:role="line"
         id="tspan841"
         x="218.75926"
         y="686.362"
         style="font-size:200px;fill:#993337;fill-opacity:1;">Web</tspan></text>
  </g>
</svg>
