<?xml version="1.0" encoding="UTF-8" standalone="no"?>
<svg
   xmlns:dc="http://purl.org/dc/elements/1.1/"
   xmlns:cc="http://creativecommons.org/ns#"
   xmlns:rdf="http://www.w3.org/1999/02/22-rdf-syntax-ns#"
   xmlns:svg="http://www.w3.org/2000/svg"
   xmlns="http://www.w3.org/2000/svg"
   xmlns:sodipodi="http://sodipodi.sourceforge.net/DTD/sodipodi-0.dtd"
   xmlns:inkscape="http://www.inkscape.org/namespaces/inkscape"
   inkscape:version="1.0 (1.0+r73+1)"
   sodipodi:docname="icon.svg"
   viewBox="0 0 1000 1000"
   height="1000"
   width="1000"
   id="svg62"
   version="1.1">
  <metadata
     id="metadata68">
    <rdf:RDF>
      <cc:Work
         rdf:about="">
        <dc:format>image/svg+xml</dc:format>
        <dc:type
           rdf:resource="http://purl.org/dc/dcmitype/StillImage" />
        <dc:title />
      </cc:Work>
    </rdf:RDF>
  </metadata>
  <defs
     id="defs66" />
  <sodipodi:namedview
     inkscape:current-layer="g70"
     inkscape:window-maximized="1"
     inkscape:window-y="27"
     inkscape:window-x="67"
     inkscape:cy="372.96258"
     inkscape:cx="645.13773"
     inkscape:zoom="0.75729927"
     fit-margin-bottom="0"
     fit-margin-right="0"
     fit-margin-left="0"
     fit-margin-top="0"
     showgrid="false"
     id="namedview64"
     inkscape:window-height="1016"
     inkscape:window-width="1853"
     inkscape:pageshadow="2"
     inkscape:pageopacity="0"
     guidetolerance="10"
     gridtolerance="10"
     objecttolerance="10"
     borderopacity="1"
     bordercolor="#666666"
     pagecolor="#ffffff"
     inkscape:document-rotation="0">
    <inkscape:grid
       originy="179.53995"
       originx="44.091507"
       id="grid74"
       type="xygrid" />
  </sodipodi:namedview>
  <g
     transform="translate(44.091507,179.53995)"
     id="g70"
     inkscape:label="Image"
     inkscape:groupmode="layer">
    <path
       id="path86-3"
       style="fill:#993333;fill-opacity:1;stroke:none;stroke-width:9.47368"
       d="M 384.85584,-129.53995 V -27.605259 A 355.26314,355.26314 0 0 0 260.03268,24.111388 L 187.94388,-47.977396 87.471112,52.495371 159.54138,124.56574 A 355.26314,355.26314 0 0 0 107.82462,249.40742 H 5.9085814 V 391.51264 H 107.84314 a 355.26314,355.26314 0 0 0 51.69824,124.84169 L 87.471112,588.42471 187.94388,688.89749 260.01426,616.8271 a 355.26314,355.26314 0 0 0 124.84158,51.71676 v 101.91619 h 142.10532 v -101.9347 a 355.26314,355.26314 0 0 0 124.82317,-51.71666 l 72.08876,72.0888 100.47284,-100.47278 -72.07031,-72.07038 A 355.26314,355.26314 0 0 0 803.99243,391.51264 H 905.90841 V 249.40742 H 803.97387 A 355.26314,355.26314 0 0 0 752.27562,124.56574 L 824.34593,52.495371 723.87309,-47.977396 651.80274,24.092871 A 355.26314,355.26314 0 0 0 526.96116,-27.623889 V -129.53995 Z m 70.92312,331.57886 a 118.42104,118.42104 0 0 1 0.12912,0 A 118.42104,118.42104 0 0 1 574.32916,320.45998 118.42104,118.42104 0 0 1 455.90808,438.88105 118.42104,118.42104 0 0 1 337.487,320.45998 118.42104,118.42104 0 0 1 455.77853,202.03891 Z" />
    <rect
       y="-179.0401"
       x="-43.591656"
       height="999.00031"
       width="999.00031"
       id="rect1002"
       style="fill:none;fill-opacity:1;stroke:#000000;stroke-width:0.999703" />
  </g>
</svg>
